<?xml version="1.0" encoding="utf-8"?>
<!-- Generator: Adobe Illustrator 19.1.0, SVG Export Plug-In . SVG Version: 6.00 Build 0)  -->
<svg version="1.1" id="Calque_1" xmlns="http://www.w3.org/2000/svg" xmlns:xlink="http://www.w3.org/1999/xlink" x="0px" y="0px"
	 viewBox="-545 370.9 100 100" style="enable-background:new -545 370.9 100 100;" xml:space="preserve">
<style type="text/css">
	.st0{clip-path:url(#SVGID_2_);}
	.st1{clip-path:url(#SVGID_4_);}
	.st2{fill:#D69718;}
	.st3{fill:#BF8715;}
	.st4{clip-path:url(#SVGID_6_);fill:#262626;stroke:url(#SVGID_7_);stroke-width:4;stroke-linecap:square;stroke-miterlimit:10;}
	.st5{clip-path:url(#SVGID_9_);}
	.st6{fill:#171717;}
	.st7{fill:#803D2B;}
	.st8{stroke:#000000;stroke-miterlimit:10;}
	.st9{fill:#666666;}
	.st10{fill:#303030;}
	.st11{font-family:'Tahoma';}
	.st12{font-size:16.6504px;}
	.st13{font-size:8.3252px;}
	.st14{clip-path:url(#SVGID_11_);stroke:#303030;stroke-miterlimit:10;}
	.st15{clip-path:url(#SVGID_13_);stroke:#303030;stroke-miterlimit:10;}
</style>
<g id="Adapter">
	<g>
		<g>
			<defs>
				<rect id="SVGID_1_" x="-545" y="370.9" width="100" height="100"/>
			</defs>
			<clipPath id="SVGID_2_">
				<use xlink:href="#SVGID_1_"  style="overflow:visible;"/>
			</clipPath>
			<polyline class="st0" points="-545,370.9 -545,470.9 -459.5,470.9 -459.5,462.6 -518,462.6 -518,379.2 -459.5,379.2 
				-459.5,370.9 -545,370.9 			"/>
		</g>
		<g>
			<defs>
				<rect id="SVGID_3_" x="-545" y="370.9" width="100" height="100"/>
			</defs>
			<clipPath id="SVGID_4_">
				<use xlink:href="#SVGID_3_"  style="overflow:visible;"/>
			</clipPath>
			<g class="st1">
				<polygon class="st2" points="-529.5,449.9 -531,448.4 -531,393.4 -529.5,391.9 -513.8,391.9 -512.3,393.4 -512.3,448.4 
					-513.8,449.9 				"/>
				<path class="st3" d="M-513.8,393.4v55h-15.7v-55H-513.8 M-513.8,390.4h-15.7l-3,3v55l3,3h15.8l3-3v-55L-513.8,390.4
					L-513.8,390.4z"/>
			</g>
		</g>
		<g>
			<defs>
				<rect id="SVGID_5_" x="-545" y="370.9" width="100" height="100"/>
			</defs>
			<clipPath id="SVGID_6_">
				<use xlink:href="#SVGID_5_"  style="overflow:visible;"/>
			</clipPath>
			
				<linearGradient id="SVGID_7_" gradientUnits="userSpaceOnUse" x1="-615.4" y1="420.78" x2="-459.9" y2="420.78" gradientTransform="matrix(1 0 0 -1 0 841.67)">
				<stop  offset="0" style="stop-color:#4085B7"/>
				<stop  offset="1" style="stop-color:#4085B7;stop-opacity:0"/>
			</linearGradient>
			<polyline class="st4" points="-613.4,379 -613.4,462.8 -461.9,462.8 -461.9,452.2 -537.6,452.2 -537.6,389.6 -461.9,389.6 
				-461.9,379 -613.4,379 			"/>
		</g>
		<g>
			<defs>
				<rect id="SVGID_8_" x="-545" y="370.9" width="100" height="100"/>
			</defs>
			<clipPath id="SVGID_9_">
				<use xlink:href="#SVGID_8_"  style="overflow:visible;"/>
			</clipPath>
			<g class="st5">
				<polygon class="st6" points="-518.5,457.6 -520.6,455.5 -520.6,386.2 -518.5,384.2 -449.2,384.2 -447.1,386.2 -447.1,455.5 
					-449.2,457.6 				"/>
				<path class="st7" d="M-449.2,386.2v69.3h-69.3v-69.3H-449.2 M-449.2,382.1h-69.3l-4.2,4.2v69.3l4.2,4.2h69.3l4.2-4.2v-69.4
					L-449.2,382.1L-449.2,382.1z"/>
			</g>
		</g>
	</g>
</g>
<g id="InMemory">
	<rect x="-511.6" y="406.6" class="st8" width="55.5" height="28.7"/>
	<rect x="-511.4" y="402.9" class="st9" width="1.6" height="3.1"/>
	<rect x="-507.9" y="402.9" class="st9" width="1.6" height="3.1"/>
	<rect x="-504.3" y="402.9" class="st9" width="1.6" height="3.1"/>
	<rect x="-500.7" y="402.9" class="st9" width="1.6" height="3.1"/>
	<rect x="-497.1" y="402.9" class="st9" width="1.6" height="3.1"/>
	<rect x="-493.6" y="402.9" class="st9" width="1.6" height="3.1"/>
	<rect x="-490" y="402.9" class="st9" width="1.6" height="3.1"/>
	<rect x="-486.4" y="402.9" class="st9" width="1.6" height="3.1"/>
	<rect x="-482.9" y="402.9" class="st9" width="1.6" height="3.1"/>
	<rect x="-479.3" y="402.9" class="st9" width="1.6" height="3.1"/>
	<rect x="-475.7" y="402.9" class="st9" width="1.6" height="3.1"/>
	<rect x="-472.2" y="402.9" class="st9" width="1.6" height="3.1"/>
	<rect x="-468.6" y="402.9" class="st9" width="1.6" height="3.1"/>
	<rect x="-465" y="402.9" class="st9" width="1.6" height="3.1"/>
	<rect x="-461.5" y="402.9" class="st9" width="1.6" height="3.1"/>
	<rect x="-457.9" y="402.9" class="st9" width="1.6" height="3.1"/>
	<rect x="-511.4" y="435.8" class="st9" width="1.6" height="3.1"/>
	<rect x="-507.9" y="435.8" class="st9" width="1.6" height="3.1"/>
	<rect x="-504.3" y="435.8" class="st9" width="1.6" height="3.1"/>
	<rect x="-500.7" y="435.8" class="st9" width="1.6" height="3.1"/>
	<rect x="-497.1" y="435.8" class="st9" width="1.6" height="3.1"/>
	<rect x="-493.6" y="435.8" class="st9" width="1.6" height="3.1"/>
	<rect x="-490" y="435.8" class="st9" width="1.6" height="3.1"/>
	<rect x="-486.4" y="435.8" class="st9" width="1.6" height="3.1"/>
	<rect x="-482.9" y="435.8" class="st9" width="1.6" height="3.1"/>
	<rect x="-479.3" y="435.8" class="st9" width="1.6" height="3.1"/>
	<rect x="-475.7" y="435.8" class="st9" width="1.6" height="3.1"/>
	<rect x="-472.2" y="435.8" class="st9" width="1.6" height="3.1"/>
	<rect x="-468.6" y="435.8" class="st9" width="1.6" height="3.1"/>
	<rect x="-465" y="435.8" class="st9" width="1.6" height="3.1"/>
	<rect x="-461.5" y="435.8" class="st9" width="1.6" height="3.1"/>
	<rect x="-457.9" y="435.8" class="st9" width="1.6" height="3.1"/>
	<text transform="matrix(1 0 0 1 -503.0259 427.0593)"><tspan x="0" y="0" class="st10 st11 st12">R</tspan><tspan x="10.3" y="0" class="st10 st11 st13"> </tspan><tspan x="12.9" y="0" class="st10 st11 st12">A</tspan><tspan x="22.9" y="0" class="st10 st11 st13"> </tspan><tspan x="25.5" y="0" class="st10 st11 st12">M</tspan></text>
	<g>
		<defs>
			<rect id="SVGID_10_" x="-461.9" y="408.9" width="6.4" height="11.1"/>
		</defs>
		<clipPath id="SVGID_11_">
			<use xlink:href="#SVGID_10_"  style="overflow:visible;"/>
		</clipPath>
		<circle class="st14" cx="-456.1" cy="414.6" r="2.5"/>
	</g>
	<g>
		<defs>
			<rect id="SVGID_12_" x="-512.2" y="408.9" width="6.4" height="11.1"/>
		</defs>
		<clipPath id="SVGID_13_">
			<use xlink:href="#SVGID_12_"  style="overflow:visible;"/>
		</clipPath>
		<circle class="st15" cx="-512.2" cy="414.6" r="2.5"/>
	</g>
</g>
</svg>
