<svg id="Calque_1" xmlns="http://www.w3.org/2000/svg" xmlns:xlink="http://www.w3.org/1999/xlink" viewBox="-545 370.9 100 100"><style>.st9{fill:#666}.st10{fill:#303030}.st11{font-family:&apos;Tahoma&apos;}.st12{font-size:16.6504px}.st13{font-size:8.3252px}</style><g id="Adapter"><defs><path id="SVGID_1_" d="M-545 370.9h100v100h-100z"/></defs><clipPath id="SVGID_2_"><use xlink:href="#SVGID_1_" overflow="visible"/></clipPath><path clip-path="url(#SVGID_2_)" d="M-545 370.9v100h85.5v-8.3H-518v-83.4h58.5v-8.3H-545"/><defs><path id="SVGID_3_" d="M-545 370.9h100v100h-100z"/></defs><clipPath id="SVGID_4_"><use xlink:href="#SVGID_3_" overflow="visible"/></clipPath><g clip-path="url(#SVGID_4_)"><path fill="#d69718" d="M-529.5 449.9l-1.5-1.5v-55l1.5-1.5h15.7l1.5 1.5v55l-1.5 1.5z"/><path d="M-513.8 393.4v55h-15.7v-55h15.7m0-3h-15.7l-3 3v55l3 3h15.8l3-3v-55l-3.1-3z" fill="#bf8715"/></g><g><defs><path id="SVGID_5_" d="M-545 370.9h100v100h-100z"/></defs><clipPath id="SVGID_6_"><use xlink:href="#SVGID_5_" overflow="visible"/></clipPath><linearGradient id="SVGID_7_" gradientUnits="userSpaceOnUse" x1="-615.4" y1="420.78" x2="-459.9" y2="420.78" gradientTransform="matrix(1 0 0 -1 0 841.67)"><stop offset="0" stop-color="#4085b7"/><stop offset="1" stop-color="#4085b7" stop-opacity="0"/></linearGradient><path clip-path="url(#SVGID_6_)" fill="#262626" stroke="url(#SVGID_7_)" stroke-width="4" stroke-linecap="square" stroke-miterlimit="10" d="M-613.4 379v83.8h151.5v-10.6h-75.7v-62.6h75.7V379h-151.5"/></g><g><defs><path id="SVGID_8_" d="M-545 370.9h100v100h-100z"/></defs><clipPath id="SVGID_9_"><use xlink:href="#SVGID_8_" overflow="visible"/></clipPath><g clip-path="url(#SVGID_9_)"><path fill="#171717" d="M-518.5 457.6l-2.1-2.1v-69.3l2.1-2h69.3l2.1 2v69.3l-2.1 2.1z"/><path d="M-449.2 386.2v69.3h-69.3v-69.3h69.3m0-4.1h-69.3l-4.2 4.2v69.3l4.2 4.2h69.3l4.2-4.2v-69.4l-4.2-4.1z" fill="#803d2b"/></g></g></g><g id="InMemory"><path stroke="#000" stroke-miterlimit="10" d="M-511.6 406.6h55.5v28.7h-55.5z"/><path class="st9" d="M-511.4 402.9h1.6v3.1h-1.6zM-507.9 402.9h1.6v3.1h-1.6zM-504.3 402.9h1.6v3.1h-1.6zM-500.7 402.9h1.6v3.1h-1.6zM-497.1 402.9h1.6v3.1h-1.6zM-493.6 402.9h1.6v3.1h-1.6zM-490 402.9h1.6v3.1h-1.6zM-486.4 402.9h1.6v3.1h-1.6zM-482.9 402.9h1.6v3.1h-1.6zM-479.3 402.9h1.6v3.1h-1.6zM-475.7 402.9h1.6v3.1h-1.6zM-472.2 402.9h1.6v3.1h-1.6zM-468.6 402.9h1.6v3.1h-1.6zM-465 402.9h1.6v3.1h-1.6zM-461.5 402.9h1.6v3.1h-1.6zM-457.9 402.9h1.6v3.1h-1.6zM-511.4 435.8h1.6v3.1h-1.6zM-507.9 435.8h1.6v3.1h-1.6zM-504.3 435.8h1.6v3.1h-1.6zM-500.7 435.8h1.6v3.1h-1.6zM-497.1 435.8h1.6v3.1h-1.6zM-493.6 435.8h1.6v3.1h-1.6zM-490 435.8h1.6v3.1h-1.6zM-486.4 435.8h1.6v3.1h-1.6zM-482.9 435.8h1.6v3.1h-1.6zM-479.3 435.8h1.6v3.1h-1.6zM-475.7 435.8h1.6v3.1h-1.6zM-472.2 435.8h1.6v3.1h-1.6zM-468.6 435.8h1.6v3.1h-1.6zM-465 435.8h1.6v3.1h-1.6zM-461.5 435.8h1.6v3.1h-1.6zM-457.9 435.8h1.6v3.1h-1.6z"/><text transform="translate(-503.026 427.06)"><tspan x="0" y="0" class="st10 st11 st12">R</tspan><tspan x="10.3" y="0" class="st10 st11 st13"> </tspan><tspan x="12.9" y="0" class="st10 st11 st12">A</tspan><tspan x="22.9" y="0" class="st10 st11 st13"> </tspan><tspan x="25.5" y="0" class="st10 st11 st12">M</tspan></text><defs><path id="SVGID_10_" d="M-461.9 408.9h6.4V420h-6.4z"/></defs><clipPath id="SVGID_11_"><use xlink:href="#SVGID_10_" overflow="visible"/></clipPath><circle cx="-456.1" cy="414.6" r="2.5" clip-path="url(#SVGID_11_)" stroke="#303030" stroke-miterlimit="10"/><g><defs><path id="SVGID_12_" d="M-512.2 408.9h6.4V420h-6.4z"/></defs><clipPath id="SVGID_13_"><use xlink:href="#SVGID_12_" overflow="visible"/></clipPath><circle cx="-512.2" cy="414.6" r="2.5" clip-path="url(#SVGID_13_)" stroke="#303030" stroke-miterlimit="10"/></g></g></svg>