<svg id="Calque_1" xmlns="http://www.w3.org/2000/svg" xmlns:xlink="http://www.w3.org/1999/xlink" viewBox="-545 370.9 100 100"><style>.st8{enable-background:new}.st10{fill:#fff}</style><g id="Adapter"><defs><path id="SVGID_1_" d="M-545 370.9h100v100h-100z"/></defs><clipPath id="SVGID_2_"><use xlink:href="#SVGID_1_" overflow="visible"/></clipPath><path clip-path="url(#SVGID_2_)" d="M-545 370.9v100h85.5v-8.3H-518v-83.4h58.5v-8.3H-545"/><defs><path id="SVGID_3_" d="M-545 370.9h100v100h-100z"/></defs><clipPath id="SVGID_4_"><use xlink:href="#SVGID_3_" overflow="visible"/></clipPath><g clip-path="url(#SVGID_4_)"><path fill="#d69718" d="M-529.5 449.9l-1.5-1.5v-55l1.5-1.5h15.7l1.5 1.5v55l-1.5 1.5z"/><path d="M-513.8 393.4v55h-15.7v-55h15.7m0-3h-15.7l-3 3v55l3 3h15.8l3-3v-55l-3.1-3z" fill="#bf8715"/></g><g><defs><path id="SVGID_5_" d="M-545 370.9h100v100h-100z"/></defs><clipPath id="SVGID_6_"><use xlink:href="#SVGID_5_" overflow="visible"/></clipPath><linearGradient id="SVGID_7_" gradientUnits="userSpaceOnUse" x1="-615.4" y1="420.56" x2="-459.9" y2="420.56" gradientTransform="matrix(1 0 0 -1 0 841.45)"><stop offset="0" stop-color="#4085b7"/><stop offset="1" stop-color="#4085b7" stop-opacity="0"/></linearGradient><path clip-path="url(#SVGID_6_)" fill="#262626" stroke="url(#SVGID_7_)" stroke-width="4" stroke-linecap="square" stroke-miterlimit="10" d="M-613.4 379v83.8h151.5v-10.6h-75.7v-62.6h75.7V379h-151.5"/></g><g><defs><path id="SVGID_8_" d="M-545 370.9h100v100h-100z"/></defs><clipPath id="SVGID_9_"><use xlink:href="#SVGID_8_" overflow="visible"/></clipPath><g clip-path="url(#SVGID_9_)"><path fill="#171717" d="M-518.5 457.6l-2.1-2.1v-69.3l2.1-2h69.3l2.1 2v69.3l-2.1 2.1z"/><path d="M-449.2 386.2v69.3h-69.3v-69.3h69.3m0-4.1h-69.3l-4.2 4.2v69.3l4.2 4.2h69.3l4.2-4.2v-69.4l-4.2-4.1z" fill="#803d2b"/></g></g></g><g id="WebStorage"><path d="M-476.4 438c-2.6 1.4-5.3 1.9-8.5 1.9-7.9 0-14.5-5.8-14.5-15 0-9.9 6.9-18.4 17.5-18.4 8.4 0 14 5.9 14 13.9 0 7.2-4 11.4-8.5 11.4-1.9 0-3.7-1.3-3.6-4.2h-.2c-1.7 2.8-3.9 4.2-6.8 4.2-2.8 0-5.2-2.3-5.2-6 0-6 4.7-11.4 11.4-11.4 2.1 0 3.9.4 5.1 1l-1.6 8.7c-.7 3.6-.1 5.3 1.4 5.4 2.4 0 5.2-3.2 5.2-8.8 0-7-4.2-12-11.6-12-7.8 0-14.4 6.2-14.4 15.9 0 8 5.2 13 12.3 13 2.7 0 5.3-.6 7.2-1.7l.8 2.1zm-2.6-20.7c-.5-.1-1.3-.3-2.4-.3-4.2 0-7.6 4-7.6 8.6 0 2.1 1.1 3.6 3.2 3.6 2.8 0 5.3-3.6 5.9-6.5l.9-5.4z" fill="#474747"/><g class="st8"><path class="st10" d="M-514.3 419.6c4.6 0 5.3-2.5 5.3-4.8 0-1.8-.3-3.6-.5-5.5-.3-1.8-.5-3.6-.5-5.4 0-6 3.9-8.5 9.4-8.5h1.4v3.6h-1.2c-3.8 0-5.1 2.1-5.1 5.6 0 1.5.2 3.1.5 4.6.3 1.6.5 3.2.5 4.9.1 4.2-1.8 6.2-4.7 7v.1c2.9.7 4.7 2.9 4.7 7.1 0 1.8-.2 3.4-.5 4.9-.3 1.6-.5 3.1-.5 4.7 0 3.6 1.5 5.7 5.1 5.7h1.2v3.6h-1.4c-5.4 0-9.4-2.3-9.4-8.9 0-1.8.3-3.6.5-5.3.3-1.8.5-3.5.5-5.3 0-2-.7-4.8-5.3-4.8v-3.3z"/></g><g class="st8"><path class="st10" d="M-453.4 422.9c-4.6 0-5.3 2.8-5.3 4.8 0 1.8.3 3.5.5 5.3s.5 3.6.5 5.3c0 6.6-4.1 8.9-9.4 8.9h-1.4v-3.6h1.1c3.6-.1 5.2-2 5.2-5.7 0-1.6-.3-3.1-.5-4.7-.3-1.6-.5-3.2-.5-4.9 0-4.2 1.8-6.4 4.7-7.1v-.1c-2.9-.8-4.7-2.9-4.7-7 0-1.8.3-3.3.5-4.9.2-1.6.5-3.1.5-4.6 0-3.5-1.4-5.5-5.1-5.6h-1.2v-3.6h1.3c5.5 0 9.5 2.5 9.5 8.5 0 1.8-.3 3.6-.5 5.4s-.5 3.6-.5 5.5c0 2.3.6 4.8 5.3 4.8v3.3z"/></g></g></svg>