<?xml version="1.0" encoding="utf-8"?>
<!-- Generator: Adobe Illustrator 19.1.0, SVG Export Plug-In . SVG Version: 6.00 Build 0)  -->
<svg version="1.1" id="Calque_1" xmlns="http://www.w3.org/2000/svg" xmlns:xlink="http://www.w3.org/1999/xlink" x="0px" y="0px"
	 viewBox="-545 370.9 100 100" style="enable-background:new -545 370.9 100 100;" xml:space="preserve">
<style type="text/css">
	.st0{clip-path:url(#SVGID_2_);}
	.st1{clip-path:url(#SVGID_4_);}
	.st2{fill:#D69718;}
	.st3{fill:#BF8715;}
	.st4{clip-path:url(#SVGID_6_);fill:#262626;stroke:url(#SVGID_7_);stroke-width:4;stroke-linecap:square;stroke-miterlimit:10;}
	.st5{clip-path:url(#SVGID_9_);}
	.st6{fill:#171717;}
	.st7{fill:#803D2B;}
	.st8{enable-background:new    ;}
	.st9{fill:#474747;}
	.st10{fill:#FFFFFF;}
</style>
<g id="Adapter">
	<g>
		<g>
			<g>
				<g>
					<defs>
						<rect id="SVGID_1_" x="-545" y="370.9" width="100" height="100"/>
					</defs>
					<clipPath id="SVGID_2_">
						<use xlink:href="#SVGID_1_"  style="overflow:visible;"/>
					</clipPath>
					<polyline class="st0" points="-545,370.9 -545,470.9 -459.5,470.9 -459.5,462.6 -518,462.6 -518,379.2 -459.5,379.2 
						-459.5,370.9 -545,370.9 					"/>
				</g>
			</g>
		</g>
		<g>
			<g>
				<g>
					<defs>
						<rect id="SVGID_3_" x="-545" y="370.9" width="100" height="100"/>
					</defs>
					<clipPath id="SVGID_4_">
						<use xlink:href="#SVGID_3_"  style="overflow:visible;"/>
					</clipPath>
					<g class="st1">
						<polygon class="st2" points="-529.5,449.9 -531,448.4 -531,393.4 -529.5,391.9 -513.8,391.9 -512.3,393.4 -512.3,448.4 
							-513.8,449.9 						"/>
						<path class="st3" d="M-513.8,393.4v55h-15.7v-55H-513.8 M-513.8,390.4h-15.7l-3,3v55l3,3h15.8l3-3v-55L-513.8,390.4
							L-513.8,390.4z"/>
					</g>
				</g>
			</g>
		</g>
		<g>
			<g>
				<g>
					<defs>
						<rect id="SVGID_5_" x="-545" y="370.9" width="100" height="100"/>
					</defs>
					<clipPath id="SVGID_6_">
						<use xlink:href="#SVGID_5_"  style="overflow:visible;"/>
					</clipPath>
					
						<linearGradient id="SVGID_7_" gradientUnits="userSpaceOnUse" x1="-615.4" y1="420.56" x2="-459.9" y2="420.56" gradientTransform="matrix(1 0 0 -1 0 841.45)">
						<stop  offset="0" style="stop-color:#4085B7"/>
						<stop  offset="1" style="stop-color:#4085B7;stop-opacity:0"/>
					</linearGradient>
					<polyline class="st4" points="-613.4,379 -613.4,462.8 -461.9,462.8 -461.9,452.2 -537.6,452.2 -537.6,389.6 -461.9,389.6 
						-461.9,379 -613.4,379 					"/>
				</g>
			</g>
		</g>
		<g>
			<g>
				<g>
					<defs>
						<rect id="SVGID_8_" x="-545" y="370.9" width="100" height="100"/>
					</defs>
					<clipPath id="SVGID_9_">
						<use xlink:href="#SVGID_8_"  style="overflow:visible;"/>
					</clipPath>
					<g class="st5">
						<polygon class="st6" points="-518.5,457.6 -520.6,455.5 -520.6,386.2 -518.5,384.2 -449.2,384.2 -447.1,386.2 -447.1,455.5 
							-449.2,457.6 						"/>
						<path class="st7" d="M-449.2,386.2v69.3h-69.3v-69.3H-449.2 M-449.2,382.1h-69.3l-4.2,4.2v69.3l4.2,4.2h69.3l4.2-4.2v-69.4
							L-449.2,382.1L-449.2,382.1z"/>
					</g>
				</g>
			</g>
		</g>
	</g>
</g>
<g id="WebStorage">
	<g class="st8">
		<path class="st9" d="M-476.4,438c-2.6,1.4-5.3,1.9-8.5,1.9c-7.9,0-14.5-5.8-14.5-15c0-9.9,6.9-18.4,17.5-18.4
			c8.4,0,14,5.9,14,13.9c0,7.2-4,11.4-8.5,11.4c-1.9,0-3.7-1.3-3.6-4.2h-0.2c-1.7,2.8-3.9,4.2-6.8,4.2c-2.8,0-5.2-2.3-5.2-6
			c0-6,4.7-11.4,11.4-11.4c2.1,0,3.9,0.4,5.1,1l-1.6,8.7c-0.7,3.6-0.1,5.3,1.4,5.4c2.4,0,5.2-3.2,5.2-8.8c0-7-4.2-12-11.6-12
			c-7.8,0-14.4,6.2-14.4,15.9c0,8,5.2,13,12.3,13c2.7,0,5.3-0.6,7.2-1.7L-476.4,438z M-479,417.3c-0.5-0.1-1.3-0.3-2.4-0.3
			c-4.2,0-7.6,4-7.6,8.6c0,2.1,1.1,3.6,3.2,3.6c2.8,0,5.3-3.6,5.9-6.5L-479,417.3z"/>
	</g>
	<g class="st8">
		<path class="st10" d="M-514.3,419.6c4.6,0,5.3-2.5,5.3-4.8c0-1.8-0.3-3.6-0.5-5.5c-0.3-1.8-0.5-3.6-0.5-5.4c0-6,3.9-8.5,9.4-8.5
			h1.4v3.6h-1.2c-3.8,0-5.1,2.1-5.1,5.6c0,1.5,0.2,3.1,0.5,4.6c0.3,1.6,0.5,3.2,0.5,4.9c0.1,4.2-1.8,6.2-4.7,7v0.1
			c2.9,0.7,4.7,2.9,4.7,7.1c0,1.8-0.2,3.4-0.5,4.9c-0.3,1.6-0.5,3.1-0.5,4.7c0,3.6,1.5,5.7,5.1,5.7h1.2v3.6h-1.4
			c-5.4,0-9.4-2.3-9.4-8.9c0-1.8,0.3-3.6,0.5-5.3c0.3-1.8,0.5-3.5,0.5-5.3c0-2-0.7-4.8-5.3-4.8V419.6z"/>
	</g>
	<g class="st8">
		<path class="st10" d="M-453.4,422.9c-4.6,0-5.3,2.8-5.3,4.8c0,1.8,0.3,3.5,0.5,5.3s0.5,3.6,0.5,5.3c0,6.6-4.1,8.9-9.4,8.9h-1.4
			v-3.6h1.1c3.6-0.1,5.2-2,5.2-5.7c0-1.6-0.3-3.1-0.5-4.7c-0.3-1.6-0.5-3.2-0.5-4.9c0-4.2,1.8-6.4,4.7-7.1v-0.1
			c-2.9-0.8-4.7-2.9-4.7-7c0-1.8,0.3-3.3,0.5-4.9c0.2-1.6,0.5-3.1,0.5-4.6c0-3.5-1.4-5.5-5.1-5.6h-1.2v-3.6h1.3
			c5.5,0,9.5,2.5,9.5,8.5c0,1.8-0.3,3.6-0.5,5.4s-0.5,3.6-0.5,5.5c0,2.3,0.6,4.8,5.3,4.8V422.9z"/>
	</g>
</g>
</svg>
