<svg id="logo" xmlns="http://www.w3.org/2000/svg" viewBox="0 0 446.03 595.54"><defs><style>.cls-1{fill:#004d91;}.cls-2{fill:#0d3122;}.cls-3{fill:#105239;}</style></defs><title>DiasporaLOGO</title><path class="cls-1" d="M428.36,842.69,574.58,696.41h144L572.35,842.69Z" transform="translate(-275.92 -247.15)"/><path class="cls-2" d="M569.73,546.37,423.25,692.91H278.48c.51-.6.81-1,1.18-1.39Q351.6,619.6,423.59,547.71a4.24,4.24,0,0,1,2.62-1.28C473.86,546.36,521.52,546.37,569.73,546.37Z" transform="translate(-275.92 -247.15)"/><path class="cls-3" d="M568.85,543.17h-143L278.72,396.87H422.65Z" transform="translate(-275.92 -247.15)"/><path class="cls-1" d="M718.31,393.43H575.65L428.52,247.17H572.21Z" transform="translate(-275.92 -247.15)"/><path class="cls-1" d="M721.93,549.69V692.94H578.68Z" transform="translate(-275.92 -247.15)"/><path class="cls-1" d="M275.92,842.68V699.47l143.3,143.21Z" transform="translate(-275.92 -247.15)"/><path class="cls-1" d="M275.93,390.56V247.15H419.45Z" transform="translate(-275.92 -247.15)"/><path class="cls-1" d="M578.57,397H722V540.33Z" transform="translate(-275.92 -247.15)"/><path class="cls-1" d="M353.52,318.59l70.35-70.33,70.32,70.33Z" transform="translate(-275.92 -247.15)"/><path class="cls-1" d="M424.39,842.07l-70.85-70.85H494.08Z" transform="translate(-275.92 -247.15)"/></svg>